<?xml version="1.0" encoding="iso-8859-1"?>
<!-- Generator: Adobe Illustrator 18.1.1, SVG Export Plug-In . SVG Version: 6.00 Build 0)  -->
<svg version="1.1" id="Capa_1" xmlns="http://www.w3.org/2000/svg" xmlns:xlink="http://www.w3.org/1999/xlink" x="0px" y="0px"
	 viewBox="0 0 16.238 16.238" style="enable-background:new 0 0 16.238 16.238;" xml:space="preserve">
<g>
	<g>
		<path style="fill:#030104;" d="M8.128,0C3.646,0,0,3.642,0,8.12s3.646,8.118,8.128,8.118c4.471,0,8.11-3.642,8.11-8.118
			C16.238,3.642,12.599,0,8.128,0z M8.128,15.276c-3.951,0-7.166-3.21-7.166-7.156s3.215-7.156,7.166-7.156
			c3.94,0,7.147,3.21,7.147,7.156S12.068,15.276,8.128,15.276z"/>
		<circle style="fill:#030104;" cx="10.922" cy="5.691" r="1.317"/>
		<circle style="fill:#030104;" cx="5.403" cy="5.689" r="1.319"/>
		<path style="fill:#030104;" d="M11.18,10.048c0.189-0.188,0.189-0.493,0-0.681c-0.188-0.188-0.492-0.188-0.68,0
			c-0.896,0.896-1.82,1.328-2.732,1.286c-1.409-0.063-2.401-1.229-2.42-1.252C5.18,9.197,4.876,9.167,4.672,9.336
			c-0.206,0.168-0.235,0.472-0.066,0.677c0.051,0.063,1.264,1.512,3.108,1.602c0.06,0.003,0.12,0.005,0.181,0.005
			c0.208,0,0.414-0.024,0.62-0.059c0.329,0.564,1.331,2.101,2.299,1.606c0.986-0.504,0.336-2.296,0.098-2.867
			C11,10.217,11.092,10.137,11.18,10.048z"/>
	</g>
</g>
<g>
</g>
<g>
</g>
<g>
</g>
<g>
</g>
<g>
</g>
<g>
</g>
<g>
</g>
<g>
</g>
<g>
</g>
<g>
</g>
<g>
</g>
<g>
</g>
<g>
</g>
<g>
</g>
<g>
</g>
</svg>
