<?xml version="1.0" encoding="iso-8859-1"?>
<!-- Generator: Adobe Illustrator 16.0.0, SVG Export Plug-In . SVG Version: 6.00 Build 0)  -->
<!DOCTYPE svg PUBLIC "-//W3C//DTD SVG 1.1//EN" "http://www.w3.org/Graphics/SVG/1.1/DTD/svg11.dtd">
<svg version="1.1" id="Capa_1" xmlns="http://www.w3.org/2000/svg" xmlns:xlink="http://www.w3.org/1999/xlink" x="0px" y="0px"
	 width="45.938px" height="45.938px" viewBox="0 0 45.938 45.938" style="enable-background:new 0 0 45.938 45.938;"
	 xml:space="preserve">
<g>
	<g>
		<path d="M22.45,25.357l-3.213-4.157c-0.215-0.276-0.307-0.628-0.259-0.974c0.048-0.347,0.234-0.658,0.516-0.866l3.447-2.542
			l-3.557-3.275c-0.508-0.467-0.561-1.251-0.121-1.782l4.285-5.186l-1.209-4.375c-3.753-3.119-9.335-2.92-12.857,0.6
			c-3.732,3.731-3.732,9.783,0,13.515c0.173,0.17,8.051,8.012,11.684,11.627L22.45,25.357z"/>
		<path d="M36.456,2.798c-3.162-3.161-7.988-3.644-11.657-1.45l1.433,5.186c0.111,0.409,0.018,0.846-0.251,1.172l-3.931,4.757
			l3.811,3.509c0.284,0.263,0.438,0.64,0.416,1.026c-0.021,0.387-0.214,0.744-0.525,0.975l-3.646,2.688l2.898,3.75
			c0.305,0.395,0.357,0.928,0.136,1.374l-1.564,3.146c0.213-0.082,0.413-0.208,0.584-0.379c3.26-3.245,12.115-12.058,12.299-12.238
			C40.188,12.582,40.188,6.529,36.456,2.798z"/>
		<path d="M22.181,31.57c-1.035,0-1.875,3.208-1.875,4.243c0,1.036,0.84,1.875,1.875,1.875s1.875-0.839,1.875-1.875
			C24.056,34.778,23.216,31.57,22.181,31.57z"/>
		<path d="M17.328,39.82c-1.035,0-1.875,3.208-1.875,4.243c0,1.036,0.84,1.875,1.875,1.875s1.875-0.839,1.875-1.875
			C19.203,43.028,18.364,39.82,17.328,39.82z"/>
	</g>
</g>
<g>
</g>
<g>
</g>
<g>
</g>
<g>
</g>
<g>
</g>
<g>
</g>
<g>
</g>
<g>
</g>
<g>
</g>
<g>
</g>
<g>
</g>
<g>
</g>
<g>
</g>
<g>
</g>
<g>
</g>
</svg>
